<?xml version="1.0" encoding="UTF-8"?>
<svg width="228.09mm" height="20.595mm" version="1.1" viewBox="0 0 228.09 20.595" xmlns="http://www.w3.org/2000/svg">
 <g transform="translate(-6.0774 -8.282)" fill="#66da66" stroke="#000">
  <path d="m8.9556 28.478 1.9516-14.923-4.3728-1.6e-4 0.66025-4.8651 14.91 5.676e-4 -0.57799 4.865-4.3726-1.59e-4 -1.8466 14.922z" stroke-width=".79832"/>
  <g stroke-width=".775" aria-label="heMCBrothers">
   <path d="m23.881 28.425v-19.756h6.1736v7.4083h3.7042v-7.4083h6.1736v19.756h-6.1736v-7.4084h-3.7042v7.4084z"/>
   <path d="m41.785 28.425v-19.756h14.817v4.9389h-8.6431v2.4694h8.6431v4.9389h-8.6431v2.4694h8.6431v4.9389z"/>
   <path d="m58.454 28.425v-19.756h6.1736v2.4694h2.4694v2.4694h2.4694v-2.4694h2.4694v-2.4694h6.1736v19.756h-6.1736v-8.6431h-1.2347v2.4694h-4.9389v-2.4694h-1.2347v8.6431z"/>
   <path d="m80.061 28.425v-19.756h16.051v4.9389h-9.8778v9.8778h9.8778v4.9389z"/>
   <path d="m106.61 23.486v-2.4694h-2.4694v2.4694zm0-7.4084v-2.4694h-2.4694v2.4694zm-8.6431 12.347v-19.756h14.817v9.2604h-1.8521v1.2347h1.8521v9.2604z"/>
   <path d="m123.28 16.078v-2.4694h-2.4694v2.4694zm-8.6431 12.347v-19.756h14.817v11.113h-1.8521v1.2347h1.8521v7.4084h-6.1736v-7.4084h-2.4694v7.4084z"/>
   <path d="m142.41 23.486v-9.8778h-4.9389v9.8778zm-9.2604 4.9389v-1.8521h-1.8521v-16.051h1.8521v-1.8521h13.582v1.8521h1.8521v16.051h-1.8521v1.8521z"/>
   <path d="m154.76 28.425v-14.817h-4.3215v-4.9389h14.817v4.9389h-4.3215v14.817z"/>
   <path d="m167.11 28.425v-19.756h6.1736v7.4083h3.7042v-7.4083h6.1736v19.756h-6.1736v-7.4084h-3.7042v7.4084z"/>
   <path d="m185.01 28.425v-19.756h14.817v4.9389h-8.6431v2.4694h8.6431v4.9389h-8.6431v2.4694h8.6431v4.9389z"/>
   <path d="m210.32 16.078v-2.4694h-2.4694v2.4694zm-8.6431 12.347v-19.756h14.817v11.113h-1.8521v1.2347h1.8521v7.4084h-6.1736v-7.4084h-2.4694v7.4084z"/>
   <path d="m218.35 28.425v-4.9389h9.2604v-2.4694h-9.2604v-12.347h15.434v4.9389h-9.2604v2.4694h9.2604v12.347z"/>
  </g>
 </g>
</svg>
